<?xml version="1.0" encoding="UTF-8"?>
<svg id="Layer_1" data-name="Layer 1" xmlns="http://www.w3.org/2000/svg" viewBox="0 0 2304 2304">
  <defs>
    <style>
      .cls-1 {
        fill: #000;
        stroke-width: 0px;
      }
    </style>
  </defs>
  <path class="cls-1" d="M1480.89,1223.77l-11.94-12.31s0-.01,0-.01c-56.89-47.33-443.27-246.51-443.27-246.51-62.09-52.8-17.37-114.43-15.28-117.15l.07-.07c49.19-30.49,74.8-41.68,192.64-83.45,0,0,376.36-120.99,384.66-473.34l-577.14,236.32c-76.54,30.39-106.19,54.42-152.81,97.58-63.57,58.86-128.13,148.16-121.24,264.8,4.24,71.76,36.47,139.01,86.53,190.6l11.95,12.32c54.49,48.35,436.92,250.42,436.92,250.42,62.9,33.9,18.14,113.52,15.42,117.08.72-.44,1.44-.87,2.15-1.31-46.68,28.67-74.04,40.37-188.66,80.99,0,0-376.36,120.99-384.66,473.34l577.14-236.32c76.54-30.39,106.19-54.42,152.81-97.59,63.57-58.86,128.13-148.16,121.24-264.8-4.24-71.76-36.47-139.01-86.53-190.6Z"/>
  <path class="cls-1" d="M1087.85,895.3l249.96,157.7s5.44-2.12,14.79-6.3c156.19-69.78,235.17-238.98,235.17-410.05,0,0-157.91,163.82-499.92,258.65Z"/>
  <path class="cls-1" d="M1222.87,1422.7l-249.96-157.7s-5.44,2.12-14.79,6.3c-156.19,69.78-235.17,238.98-235.17,410.05h0s157.91-163.82,499.92-258.65Z"/>
</svg>